NotoSerifBengali-Bold.ufo
<glyph name="udatta-deva" format="2">
  <unicode hex="0951"/>
  <anchor x="-299" y="-275" name="_vedic"/>
  <outline>
    <contour>
      <point x="-345" y="706" type="line"/>
      <point x="-255" y="706" type="line"/>
      <point x="-255" y="916" type="line"/>
      <point x="-345" y="916" type="line"/>
    </contour>
  </outline>
</glyph>
<glyph name="ai-beng" format="2">
  <advance width="789"/>
  <unicode hex="0990"/>
  <anchor x="548" y="603" name="top"/>
  <anchor x="502" y="599" name="topright"/>
  <anchor x="394" y="0" name="vedic"/>
  <anchor x="608" y="0" name="bottom"/>
  <anchor x="608" y="-5" name="bottom.rvocalic"/>
  <anchor x="588" y="8" name="bottom.virama"/>
  <outline>
    <contour>
      <point x="596" y="303" type="line"/>
      <point x="667" y="368"/>
      <point x="725" y="448"/>
      <point x="725" y="563" type="curve" smooth="yes"/>
      <point x="725" y="758"/>
      <point x="572" y="776"/>
      <point x="438" y="795" type="curve" smooth="yes"/>
      <point x="306" y="814"/>
      <point x="235" y="831"/>
      <point x="235" y="915" type="curve" smooth="yes"/>
      <point x="235" y="943"/>
      <point x="242" y="974"/>
      <point x="255" y="1001" type="curve"/>
      <point x="198" y="1020" type="line"/>
      <point x="176" y="976"/>
      <point x="164" y="932"/>
      <point x="164" y="884" type="curve" smooth="yes"/>
      <point x="164" y="733"/>
      <point x="301" y="710"/>
      <point x="431" y="694" type="curve" smooth="yes"/>
      <point x="573" y="677"/>
      <point x="663" y="657"/>
      <point x="663" y="552" type="curve" smooth="yes"/>
      <point x="663" y="486"/>
      <point x="633" y="439"/>
      <point x="570" y="393" type="curve"/>
    </contour>
    <component base="e-beng"/>
  </outline>
</glyph>
<glyph name="au-beng" format="2">
  <advance width="802"/>
  <unicode hex="0994"/>
  <anchor x="569" y="7" name="bottom"/>
  <anchor x="628" y="-1" name="bottom.rakaar"/>
  <anchor x="552" y="33" name="bottom.rvocalic"/>
  <anchor x="489" y="7" name="bottom.virama"/>
  <anchor x="596" y="603" name="top"/>
  <anchor x="535" y="599" name="topright"/>
  <anchor x="401" y="0" name="vedic"/>
  <outline>
    <contour>
      <point x="609" y="314" type="line"/>
      <point x="680" y="379"/>
      <point x="738" y="454"/>
      <point x="738" y="565" type="curve" smooth="yes"/>
      <point x="738" y="755"/>
      <point x="585" y="776"/>
      <point x="450" y="795" type="curve" smooth="yes"/>
      <point x="343" y="810"/>
      <point x="248" y="823"/>
      <point x="248" y="915" type="curve" smooth="yes"/>
      <point x="248" y="943"/>
      <point x="255" y="974"/>
      <point x="268" y="1001" type="curve"/>
      <point x="211" y="1020" type="line"/>
      <point x="189" y="976"/>
      <point x="177" y="932"/>
      <point x="177" y="884" type="curve" smooth="yes"/>
      <point x="177" y="733"/>
      <point x="314" y="710"/>
      <point x="444" y="694" type="curve" smooth="yes"/>
      <point x="563" y="679"/>
      <point x="676" y="664"/>
      <point x="676" y="550" type="curve" smooth="yes"/>
      <point x="676" y="479"/>
      <point x="645" y="436"/>
      <point x="583" y="389" type="curve"/>
    </contour>
    <component base="o-beng"/>
  </outline>
</glyph>
<glyph name="tta-beng" format="2">
  <advance width="548"/>
  <unicode hex="099F"/>
  <anchor x="357" y="7" name="bottom"/>
  <anchor x="428" y="2" name="bottom.rakaar"/>
  <anchor x="358" y="15" name="bottom.rvocalic"/>
  <anchor x="294" y="29" name="bottom.virama"/>
  <anchor x="300" y="683" name="top"/>
  <anchor x="210" y="636" name="topright"/>
  <anchor x="274" y="0" name="vedic"/>
  <anchor x="241" y="-100" name="nukta"/>
  <outline>
    <contour>
      <point x="407" y="598" type="curve"/>
      <point x="467" y="598" type="line"/>
      <point x="463" y="739"/>
      <point x="412" y="820"/>
      <point x="312" y="820" type="curve" smooth="yes"/>
      <point x="258" y="820"/>
      <point x="222" y="811"/>
      <point x="169" y="811" type="curve" smooth="yes"/>
      <point x="98" y="811"/>
      <point x="66" y="834"/>
      <point x="66" y="891" type="curve" smooth="yes"/>
      <point x="66" y="903"/>
      <point x="67" y="917"/>
      <point x="69" y="928" type="curve"/>
      <point x="18" y="933" type="line"/>
      <point x="13" y="912"/>
      <point x="10" y="885"/>
      <point x="10" y="861" type="curve" smooth="yes"/>
      <point x="10" y="764"/>
      <point x="63" y="694"/>
      <point x="177" y="694" type="curve" smooth="yes"/>
      <point x="239" y="694"/>
      <point x="283" y="705"/>
      <point x="326" y="705" type="curve" smooth="yes"/>
      <point x="378" y="705"/>
      <point x="407" y="682"/>
    </contour>
    <component base="ddha-beng"/>
  </outline>
</glyph>
<glyph name="avagraha-beng" format="2">
  <advance width="495"/>
  <unicode hex="09BD"/>
  <anchor x="224" y="583" name="top"/>
  <anchor x="222" y="571" name="topright"/>
  <outline>
    <contour>
      <point x="503" y="-93" type="curve"/>
      <point x="541" y="-52" type="line"/>
      <point x="444" y="46"/>
      <point x="321" y="135"/>
      <point x="196" y="161" type="curve"/>
      <point x="148" y="130" type="line"/>
      <point x="168" y="118"/>
      <point x="201" y="113"/>
      <point x="233" y="113" type="curve" smooth="yes"/>
      <point x="384" y="113"/>
      <point x="472" y="186"/>
      <point x="472" y="304" type="curve" smooth="yes"/>
      <point x="472" y="421"/>
      <point x="378" y="500"/>
      <point x="212" y="500" type="curve" smooth="yes"/>
      <point x="116" y="500"/>
      <point x="60" y="458"/>
      <point x="60" y="390" type="curve" smooth="yes"/>
      <point x="60" y="324"/>
      <point x="107" y="291"/>
      <point x="166" y="291" type="curve" smooth="yes"/>
      <point x="231" y="291"/>
      <point x="271" y="336"/>
      <point x="271" y="405" type="curve" smooth="yes"/>
      <point x="271" y="475"/>
      <point x="217" y="574"/>
      <point x="134" y="622" type="curve"/>
      <point x="-35" y="622" type="line"/>
      <point x="7" y="550" type="line"/>
      <point x="115" y="550" type="line"/>
      <point x="49" y="558" type="line"/>
      <point x="114" y="541"/>
      <point x="164" y="511"/>
      <point x="198" y="462" type="curve"/>
      <point x="194" y="380" type="line"/>
      <point x="211" y="399"/>
      <point x="247" y="421"/>
      <point x="277" y="421" type="curve" smooth="yes"/>
      <point x="343" y="421"/>
      <point x="377" y="384"/>
      <point x="377" y="337" type="curve" smooth="yes"/>
      <point x="377" y="265"/>
      <point x="310" y="222"/>
      <point x="207" y="222" type="curve" smooth="yes"/>
      <point x="145" y="222"/>
      <point x="92" y="234"/>
      <point x="44" y="258" type="curve"/>
      <point x="74" y="103" type="line"/>
      <point x="221" y="76"/>
      <point x="342" y="38"/>
    </contour>
  </outline>
</glyph>
<glyph name="rVocalicMatra-beng" format="2">
  <unicode hex="09C3"/>
  <anchor x="0" y="0" name="_bottom.rvocalic"/>
  <outline>
    <contour>
      <point x="30" y="-297" type="curve"/>
      <point x="57" y="-257" type="line"/>
      <point x="24" y="-212"/>
      <point x="-68" y="-129"/>
      <point x="-162" y="-83" type="curve"/>
      <point x="-151" y="-115" type="line"/>
      <point x="-107" y="-86"/>
      <point x="-54" y="-57"/>
      <point x="0" y="-33" type="curve"/>
      <point x="0" y="-11" type="line"/>
      <point x="-61" y="53" type="line"/>
      <point x="-126" y="25"/>
      <point x="-217" y="-21"/>
      <point x="-290" y="-73" type="curve"/>
      <point x="-224" y="-153" type="line"/>
      <point x="-125" y="-183"/>
      <point x="-40" y="-234"/>
    </contour>
  </outline>
</glyph>
<glyph name="halant-beng" format="2">
  <unicode hex="09CD"/>
  <anchor x="-75" y="0" name="_bottom.virama"/>
  <outline>
    <contour>
      <point x="83" y="-276" type="curve"/>
      <point x="120" y="-235" type="line"/>
      <point x="46" y="-135"/>
      <point x="-42" y="-85"/>
      <point x="-136" y="-56" type="curve"/>
      <point x="-167" y="-152" type="line"/>
      <point x="-75" y="-172"/>
      <point x="5" y="-206"/>
    </contour>
  </outline>
</glyph>
<glyph name="taKhanda-beng" format="2">
  <advance width="557"/>
  <unicode hex="09CE"/>
  <anchor x="290" y="583" name="top"/>
  <anchor x="288" y="571" name="topright"/>
  <outline>
    <contour>
      <point x="513" y="-72" type="line"/>
      <point x="537" y="-37"/>
      <point x="553" y="7"/>
      <point x="553" y="51" type="curve" smooth="yes"/>
      <point x="553" y="140"/>
      <point x="477" y="198"/>
      <point x="324" y="236" type="curve" smooth="yes"/>
      <point x="173" y="272"/>
      <point x="133" y="309"/>
      <point x="133" y="387" type="curve" smooth="yes"/>
      <point x="133" y="476"/>
      <point x="198" y="508"/>
      <point x="278" y="508" type="curve" smooth="yes"/>
      <point x="335" y="508"/>
      <point x="378" y="491"/>
      <point x="378" y="455" type="curve" smooth="yes"/>
      <point x="378" y="429"/>
      <point x="360" y="414"/>
      <point x="326" y="414" type="curve" smooth="yes"/>
      <point x="283" y="414"/>
      <point x="227" y="443"/>
      <point x="219" y="524" type="curve"/>
      <point x="169" y="503" type="line"/>
      <point x="178" y="392"/>
      <point x="220" y="302"/>
      <point x="316" y="302" type="curve" smooth="yes"/>
      <point x="409" y="302"/>
      <point x="445" y="390"/>
      <point x="445" y="474" type="curve" smooth="yes"/>
      <point x="445" y="560"/>
      <point x="393" y="622"/>
      <point x="280" y="622" type="curve" smooth="yes"/>
      <point x="134" y="622"/>
      <point x="54" y="502"/>
      <point x="54" y="371" type="curve" smooth="yes"/>
      <point x="54" y="238"/>
      <point x="113" y="151"/>
      <point x="293" y="112" type="curve" smooth="yes"/>
      <point x="435" y="82"/>
      <point x="476" y="62"/>
      <point x="476" y="11" type="curve" smooth="yes"/>
      <point x="476" y="-11"/>
      <point x="471" y="-33"/>
      <point x="460" y="-55" type="curve"/>
    </contour>
  </outline>
</glyph>
<glyph name="lVocalicMatra-beng" format="2">
  <unicode hex="09E2"/>
  <anchor x="0" y="29" name="_bottom"/>
  <outline>
    <contour>
      <point x="-93" y="-336" type="line"/>
      <point x="-9" y="-327"/>
      <point x="62" y="-276"/>
      <point x="62" y="-177" type="curve" smooth="yes"/>
      <point x="62" y="-104"/>
      <point x="17" y="-69"/>
      <point x="-54" y="-45" type="curve" smooth="yes"/>
      <point x="-116" y="-25"/>
      <point x="-141" y="-15"/>
      <point x="-141" y="19" type="curve" smooth="yes"/>
      <point x="-141" y="27"/>
      <point x="-139" y="39"/>
      <point x="-132" y="54" type="curve"/>
      <point x="-169" y="67" type="line"/>
      <point x="-190" y="40"/>
      <point x="-201" y="9"/>
      <point x="-201" y="-18" type="curve" smooth="yes"/>
      <point x="-201" y="-71"/>
      <point x="-166" y="-102"/>
      <point x="-91" y="-120" type="curve" smooth="yes"/>
      <point x="-15" y="-138"/>
      <point x="12" y="-154"/>
      <point x="12" y="-194" type="curve" smooth="yes"/>
      <point x="12" y="-232"/>
      <point x="-10" y="-253"/>
      <point x="-30" y="-253" type="curve" smooth="yes"/>
      <point x="-43" y="-253"/>
      <point x="-52" y="-249"/>
      <point x="-58" y="-243" type="curve"/>
      <point x="-23" y="-290" type="line"/>
      <point x="-22" y="-283"/>
      <point x="-22" y="-277"/>
      <point x="-22" y="-271" type="curve" smooth="yes"/>
      <point x="-22" y="-182"/>
      <point x="-77" y="-137"/>
      <point x="-145" y="-137" type="curve" smooth="yes"/>
      <point x="-211" y="-137"/>
      <point x="-252" y="-189"/>
      <point x="-252" y="-242" type="curve" smooth="yes"/>
      <point x="-252" y="-300"/>
      <point x="-218" y="-321"/>
      <point x="-185" y="-321" type="curve" smooth="yes"/>
      <point x="-149" y="-321"/>
      <point x="-131" y="-295"/>
      <point x="-131" y="-267" type="curve" smooth="yes"/>
      <point x="-131" y="-237"/>
      <point x="-151" y="-216"/>
      <point x="-180" y="-216" type="curve" smooth="yes"/>
      <point x="-202" y="-216"/>
      <point x="-220" y="-232"/>
      <point x="-221" y="-251" type="curve"/>
      <point x="-203" y="-257" type="line"/>
      <point x="-206" y="-252"/>
      <point x="-207" y="-247"/>
      <point x="-207" y="-241" type="curve" smooth="yes"/>
      <point x="-207" y="-213"/>
      <point x="-187" y="-199"/>
      <point x="-161" y="-199" type="curve" smooth="yes"/>
      <point x="-116" y="-199"/>
      <point x="-95" y="-240"/>
      <point x="-95" y="-297" type="curve" smooth="yes"/>
      <point x="-95" y="-312"/>
      <point x="-96" y="-321"/>
      <point x="-97" y="-331" type="curve"/>
    </contour>
  </outline>
</glyph>
<glyph name="one-beng" format="2">
  <advance width="549"/>
  <unicode hex="09E7"/>
  <outline>
    <contour>
      <point x="300" y="-22" type="curve" smooth="yes"/>
      <point x="431" y="-22"/>
      <point x="510" y="67"/>
      <point x="510" y="186" type="curve" smooth="yes"/>
      <point x="510" y="295"/>
      <point x="455" y="350"/>
      <point x="326" y="406" type="curve" smooth="yes"/>
      <point x="225" y="451"/>
      <point x="210" y="471"/>
      <point x="208" y="507" type="curve"/>
      <point x="149" y="502" type="line"/>
      <point x="157" y="484"/>
      <point x="176" y="479"/>
      <point x="197" y="479" type="curve" smooth="yes"/>
      <point x="243" y="479"/>
      <point x="265" y="509"/>
      <point x="265" y="553" type="curve" smooth="yes"/>
      <point x="265" y="593"/>
      <point x="236" y="633"/>
      <point x="179" y="633" type="curve" smooth="yes"/>
      <point x="112" y="633"/>
      <point x="66" y="584"/>
      <point x="66" y="516" type="curve" smooth="yes"/>
      <point x="66" y="435"/>
      <point x="111" y="372"/>
      <point x="241" y="329" type="curve" smooth="yes"/>
      <point x="377" y="285"/>
      <point x="439" y="258"/>
      <point x="439" y="188" type="curve" smooth="yes"/>
      <point x="439" y="123"/>
      <point x="394" y="86"/>
      <point x="321" y="86" type="curve" smooth="yes"/>
      <point x="287" y="86"/>
      <point x="256" y="99"/>
      <point x="239" y="121" type="curve"/>
      <point x="210" y="75" type="line"/>
      <point x="224" y="69"/>
      <point x="240" y="67"/>
      <point x="250" y="67" type="curve" smooth="yes"/>
      <point x="292" y="67"/>
      <point x="316" y="103"/>
      <point x="316" y="145" type="curve" smooth="yes"/>
      <point x="316" y="193"/>
      <point x="282" y="227"/>
      <point x="228" y="227" type="curve" smooth="yes"/>
      <point x="167" y="227"/>
      <point x="129" y="181"/>
      <point x="129" y="118" type="curve" smooth="yes"/>
      <point x="129" y="20"/>
      <point x="208" y="-22"/>
    </contour>
  </outline>
</glyph>
<glyph name="two-beng" format="2">
  <advance width="530"/>
  <unicode hex="09E8"/>
  <outline>
    <contour>
      <point x="531" y="-83" type="curve"/>
      <point x="569" y="-42" type="line"/>
      <point x="472" y="56"/>
      <point x="347" y="149"/>
      <point x="222" y="177" type="curve"/>
      <point x="218" y="131" type="line"/>
      <point x="234" y="126"/>
      <point x="260" y="126"/>
      <point x="289" y="126" type="curve" smooth="yes"/>
      <point x="415" y="126"/>
      <point x="480" y="185"/>
      <point x="480" y="280" type="curve" smooth="yes"/>
      <point x="480" y="356"/>
      <point x="440" y="411"/>
      <point x="324" y="439" type="curve" smooth="yes"/>
      <point x="227" y="463"/>
      <point x="201" y="483"/>
      <point x="197" y="520" type="curve"/>
      <point x="158" y="489" type="line"/>
      <point x="167" y="480"/>
      <point x="181" y="479"/>
      <point x="198" y="479" type="curve" smooth="yes"/>
      <point x="246" y="479"/>
      <point x="270" y="509"/>
      <point x="270" y="553" type="curve" smooth="yes"/>
      <point x="270" y="593"/>
      <point x="241" y="633"/>
      <point x="184" y="633" type="curve" smooth="yes"/>
      <point x="119" y="633"/>
      <point x="70" y="585"/>
      <point x="70" y="513" type="curve" smooth="yes"/>
      <point x="70" y="429"/>
      <point x="131" y="379"/>
      <point x="242" y="355" type="curve" smooth="yes"/>
      <point x="358" y="329"/>
      <point x="399" y="327"/>
      <point x="399" y="289" type="curve" smooth="yes"/>
      <point x="399" y="250"/>
      <point x="334" y="234"/>
      <point x="254" y="234" type="curve" smooth="yes"/>
      <point x="185" y="234"/>
      <point x="119" y="252"/>
      <point x="72" y="278" type="curve"/>
      <point x="100" y="125" type="line"/>
      <point x="247" y="88"/>
      <point x="370" y="48"/>
    </contour>
  </outline>
</glyph>
<glyph name="seven-beng" format="2">
  <advance width="585"/>
  <unicode hex="09ED"/>
  <outline>
    <contour>
      <point x="480" y="-35" type="curve" smooth="yes"/>
      <point x="534" y="-35"/>
      <point x="563" y="-3"/>
      <point x="563" y="45" type="curve" smooth="yes"/>
      <point x="563" y="94"/>
      <point x="529" y="125"/>
      <point x="487" y="125" type="curve" smooth="yes"/>
      <point x="441" y="125"/>
      <point x="425" y="92"/>
      <point x="423" y="62" type="curve"/>
      <point x="465" y="57" type="line"/>
      <point x="465" y="469" type="line" smooth="yes"/>
      <point x="465" y="561"/>
      <point x="397" y="631"/>
      <point x="284" y="631" type="curve" smooth="yes"/>
      <point x="156" y="631"/>
      <point x="53" y="540"/>
      <point x="53" y="418" type="curve" smooth="yes"/>
      <point x="53" y="275"/>
      <point x="180" y="203"/>
      <point x="278" y="203" type="curve" smooth="yes"/>
      <point x="334" y="203"/>
      <point x="366" y="216"/>
      <point x="397" y="231" type="curve"/>
      <point x="401" y="370" type="line"/>
      <point x="363" y="339"/>
      <point x="308" y="316"/>
      <point x="250" y="316" type="curve" smooth="yes"/>
      <point x="182" y="316"/>
      <point x="150" y="343"/>
      <point x="150" y="388" type="curve" smooth="yes"/>
      <point x="150" y="463"/>
      <point x="254" y="537"/>
      <point x="317" y="537" type="curve" smooth="yes"/>
      <point x="361" y="537"/>
      <point x="375" y="517"/>
      <point x="375" y="474" type="curve" smooth="yes"/>
      <point x="375" y="93" type="line" smooth="yes"/>
      <point x="375" y="20"/>
      <point x="413" y="-35"/>
    </contour>
  </outline>
</glyph>
<glyph name="rupeemark-beng" format="2">
  <advance width="585"/>
  <unicode hex="09F2"/>
  <outline>
    <contour>
      <point x="486" y="6" type="curve"/>
      <point x="544" y="24" type="line"/>
      <point x="418" y="348"/>
      <point x="235" y="477"/>
      <point x="111" y="553" type="curve"/>
      <point x="78" y="414" type="line"/>
      <point x="181" y="364"/>
      <point x="352" y="276"/>
    </contour>
  </outline>
</glyph>
<glyph name="twoNumr-beng" format="2">
  <advance width="710"/>
  <unicode hex="09F5"/>
  <outline>
    <contour>
      <point x="269" y="-6" type="line"/>
      <point x="443" y="98"/>
      <point x="573" y="288"/>
      <point x="643" y="639" type="curve"/>
      <point x="577" y="656" type="line"/>
      <point x="520" y="450"/>
      <point x="445" y="312"/>
      <point x="345" y="218" type="curve"/>
      <point x="375" y="179" type="line"/>
      <point x="382" y="195"/>
      <point x="384" y="214"/>
      <point x="384" y="232" type="curve" smooth="yes"/>
      <point x="384" y="371"/>
      <point x="288" y="446"/>
      <point x="185" y="446" type="curve" smooth="yes"/>
      <point x="92" y="446"/>
      <point x="32" y="389"/>
      <point x="32" y="310" type="curve" smooth="yes"/>
      <point x="32" y="242"/>
      <point x="74" y="207"/>
      <point x="129" y="207" type="curve" smooth="yes"/>
      <point x="186" y="207"/>
      <point x="218" y="245"/>
      <point x="218" y="291" type="curve" smooth="yes"/>
      <point x="218" y="328"/>
      <point x="201" y="352"/>
      <point x="172" y="366" type="curve"/>
      <point x="154" y="336" type="line"/>
      <point x="168" y="349"/>
      <point x="189" y="359"/>
      <point x="216" y="359" type="curve" smooth="yes"/>
      <point x="270" y="359"/>
      <point x="299" y="315"/>
      <point x="299" y="257" type="curve" smooth="yes"/>
      <point x="299" y="173"/>
      <point x="229" y="118"/>
      <point x="152" y="87" type="curve"/>
    </contour>
  </outline>
</glyph>
<glyph name="isshar-beng" format="2">
  <advance width="608"/>
  <unicode hex="09FA"/>
  <outline>
    <contour>
      <point x="235" y="147" type="curve" smooth="yes"/>
      <point x="368" y="147"/>
      <point x="467" y="246"/>
      <point x="565" y="504" type="curve"/>
      <point x="509" y="517" type="line"/>
      <point x="419" y="322"/>
      <point x="328" y="273"/>
      <point x="240" y="273" type="curve" smooth="yes"/>
      <point x="141" y="273"/>
      <point x="100" y="340"/>
      <point x="100" y="427" type="curve" smooth="yes"/>
      <point x="100" y="435"/>
      <point x="101" y="443"/>
      <point x="101" y="451" type="curve"/>
      <point x="47" y="446" type="line"/>
      <point x="43" y="420"/>
      <point x="41" y="395"/>
      <point x="41" y="371" type="curve" smooth="yes"/>
      <point x="41" y="241"/>
      <point x="105" y="147"/>
    </contour>
    <contour>
      <point x="256" y="342" type="curve" smooth="yes"/>
      <point x="293" y="342"/>
      <point x="323" y="368"/>
      <point x="323" y="411" type="curve" smooth="yes"/>
      <point x="323" y="452"/>
      <point x="293" y="480"/>
      <point x="256" y="480" type="curve" smooth="yes"/>
      <point x="216" y="480"/>
      <point x="185" y="452"/>
      <point x="185" y="411" type="curve" smooth="yes"/>
      <point x="185" y="368"/>
      <point x="217" y="342"/>
    </contour>
  </outline>
</glyph>
<glyph name="uni09FC" format="2">
  <advance width="513"/>
  <unicode hex="09FC"/>
  <anchor x="-224" y="0" name="vedic"/>
  <outline>
    <contour>
      <point x="259" y="255" type="curve" smooth="yes"/>
      <point x="368" y="255"/>
      <point x="436" y="323"/>
      <point x="456" y="458" type="curve"/>
      <point x="407" y="476" type="line"/>
      <point x="385" y="397"/>
      <point x="338" y="356"/>
      <point x="258" y="356" type="curve" smooth="yes"/>
      <point x="178" y="356"/>
      <point x="130" y="400"/>
      <point x="105" y="476" type="curve"/>
      <point x="57" y="458" type="line"/>
      <point x="77" y="324"/>
      <point x="147" y="255"/>
    </contour>
    <contour>
      <point x="257" y="399" type="curve" smooth="yes"/>
      <point x="296" y="399"/>
      <point x="324" y="423"/>
      <point x="324" y="464" type="curve" smooth="yes"/>
      <point x="324" y="503"/>
      <point x="297" y="529"/>
      <point x="257" y="529" type="curve" smooth="yes"/>
      <point x="215" y="529"/>
      <point x="188" y="504"/>
      <point x="188" y="464" type="curve" smooth="yes"/>
      <point x="188" y="424"/>
      <point x="217" y="399"/>
    </contour>
    <contour>
      <point x="433" y="-38" type="curve"/>
      <point x="470" y="3" type="line"/>
      <point x="396" y="103"/>
      <point x="308" y="153"/>
      <point x="214" y="182" type="curve"/>
      <point x="183" y="86" type="line"/>
      <point x="275" y="66"/>
      <point x="355" y="32"/>
    </contour>
  </outline>
</glyph>
<glyph name="uni09FE" format="2">
  <unicode hex="09FE"/>
  <outline>
    <contour>
      <point x="138" y="922" type="curve"/>
      <point x="165" y="954" type="line"/>
      <point x="111" y="1001"/>
      <point x="36" y="1043"/>
      <point x="-35" y="1056" type="curve"/>
      <point x="-65" y="1029" type="line"/>
      <point x="-54" y="1024"/>
      <point x="-35" y="1020"/>
      <point x="-16" y="1020" type="curve" smooth="yes"/>
      <point x="70" y="1020"/>
      <point x="121" y="1061"/>
      <point x="121" y="1123" type="curve" smooth="yes"/>
      <point x="121" y="1176"/>
      <point x="79" y="1224"/>
      <point x="-20" y="1224" type="curve" smooth="yes"/>
      <point x="-85" y="1224"/>
      <point x="-116" y="1204"/>
      <point x="-116" y="1166" type="curve" smooth="yes"/>
      <point x="-116" y="1128"/>
      <point x="-89" y="1109"/>
      <point x="-49" y="1109" type="curve" smooth="yes"/>
      <point x="-5" y="1109"/>
      <point x="14" y="1130"/>
      <point x="14" y="1177" type="curve" smooth="yes"/>
      <point x="14" y="1210"/>
      <point x="-14" y="1254"/>
      <point x="-46" y="1273" type="curve"/>
      <point x="-191" y="1273" type="line"/>
      <point x="-169" y="1231" type="line"/>
      <point x="-69" y="1231" type="line"/>
      <point x="-82" y="1242" type="line"/>
      <point x="-94" y="1235" type="line"/>
      <point x="-86" y="1234"/>
      <point x="-59" y="1220"/>
      <point x="-44" y="1196" type="curve"/>
      <point x="-41" y="1156" type="line"/>
      <point x="-30" y="1165"/>
      <point x="-7" y="1175"/>
      <point x="10" y="1175" type="curve" smooth="yes"/>
      <point x="44" y="1175"/>
      <point x="61" y="1158"/>
      <point x="61" y="1135" type="curve" smooth="yes"/>
      <point x="61" y="1100"/>
      <point x="25" y="1082"/>
      <point x="-32" y="1082" type="curve" smooth="yes"/>
      <point x="-66" y="1082"/>
      <point x="-96" y="1087"/>
      <point x="-125" y="1097" type="curve"/>
      <point x="-108" y="1019" type="line"/>
      <point x="-18" y="1009"/>
      <point x="52" y="982"/>
    </contour>
  </outline>
</glyph>
<glyph name="uni1CD5" format="2">
  <unicode hex="1CD5"/>
  <note>
uni1CD5
</note>
  <anchor x="-299" y="420" name="_vedic"/>
  <outline>
    <contour>
      <point x="-365" y="-301" type="curve" smooth="yes"/>
      <point x="-291" y="-301"/>
      <point x="-243" y="-258"/>
      <point x="-243" y="-183" type="curve" smooth="yes"/>
      <point x="-243" y="-118" type="line"/>
      <point x="-334" y="-82" type="line"/>
      <point x="-334" y="-154" type="line" smooth="yes"/>
      <point x="-334" y="-198"/>
      <point x="-354" y="-228"/>
      <point x="-398" y="-228" type="curve" smooth="yes"/>
      <point x="-424" y="-228"/>
      <point x="-443" y="-213"/>
      <point x="-443" y="-186" type="curve" smooth="yes"/>
      <point x="-443" y="-163"/>
      <point x="-429" y="-139"/>
      <point x="-407" y="-110" type="curve"/>
      <point x="-494" y="-55" type="line"/>
      <point x="-519" y="-82"/>
      <point x="-536" y="-115"/>
      <point x="-536" y="-147" type="curve" smooth="yes"/>
      <point x="-536" y="-219"/>
      <point x="-456" y="-301"/>
    </contour>
    <contour>
      <point x="-169" y="-301" type="curve" smooth="yes"/>
      <point x="-105" y="-301"/>
      <point x="-60" y="-259"/>
      <point x="-60" y="-193" type="curve" smooth="yes"/>
      <point x="-60" y="-146"/>
      <point x="-81" y="-104"/>
      <point x="-128" y="-57" type="curve"/>
      <point x="-175" y="-93" type="line"/>
      <point x="-155" y="-117"/>
      <point x="-142" y="-140"/>
      <point x="-142" y="-169" type="curve" smooth="yes"/>
      <point x="-142" y="-203"/>
      <point x="-166" y="-223"/>
      <point x="-201" y="-223" type="curve" smooth="yes"/>
      <point x="-235" y="-223"/>
      <point x="-262" y="-204"/>
      <point x="-284" y="-169" type="curve"/>
      <point x="-319" y="-187" type="line"/>
      <point x="-294" y="-256"/>
      <point x="-238" y="-301"/>
    </contour>
  </outline>
</glyph>
<glyph name="uni1CD6" format="2">
  <unicode hex="1CD6"/>
  <note>
uni1CD6
</note>
  <anchor x="-299" y="420" name="_vedic"/>
  <outline>
    <contour>
      <point x="-448" y="-266" type="line"/>
      <point x="-89" y="-266" type="line"/>
      <point x="-138" y="-193" type="line"/>
      <point x="-416" y="-193" type="line"/>
      <point x="-416" y="-103" type="line"/>
      <point x="-505" y="-55" type="line"/>
      <point x="-505" y="-201" type="line"/>
    </contour>
  </outline>
</glyph>
<glyph name="uni1CE1" format="2">
  <advance width="555"/>
  <unicode hex="1CE1"/>
  <note>
uni1CE1
</note>
  <outline>
    <contour>
      <point x="180" y="-182" type="curve" smooth="yes"/>
      <point x="293" y="-182"/>
      <point x="344" y="-123"/>
      <point x="344" y="16" type="curve" smooth="yes"/>
      <point x="344" y="188"/>
      <point x="282" y="384"/>
      <point x="282" y="597" type="curve" smooth="yes"/>
      <point x="282" y="714"/>
      <point x="329" y="742"/>
      <point x="375" y="742" type="curve" smooth="yes"/>
      <point x="418" y="742"/>
      <point x="447" y="718"/>
      <point x="478" y="678" type="curve"/>
      <point x="515" y="697" type="line"/>
      <point x="476" y="786"/>
      <point x="428" y="851"/>
      <point x="331" y="851" type="curve" smooth="yes"/>
      <point x="229" y="851"/>
      <point x="177" y="768"/>
      <point x="177" y="666" type="curve" smooth="yes"/>
      <point x="177" y="508"/>
      <point x="239" y="332"/>
      <point x="239" y="88" type="curve" smooth="yes"/>
      <point x="239" y="-35"/>
      <point x="191" y="-69"/>
      <point x="125" y="-69" type="curve" smooth="yes"/>
      <point x="86" y="-69"/>
      <point x="51" y="-58"/>
      <point x="16" y="-29" type="curve"/>
      <point x="0" y="-55" type="line"/>
      <point x="25" y="-129"/>
      <point x="88" y="-182"/>
    </contour>
  </outline>
</glyph>
<glyph name="uni1CF5" format="2">
  <advance width="469"/>
  <unicode hex="1CF5"/>
  <outline>
    <contour>
      <point x="415" y="449" type="line"/>
      <point x="360" y="492" type="line"/>
      <point x="247" y="352" type="line"/>
      <point x="130" y="494" type="line"/>
      <point x="43" y="430" type="line"/>
      <point x="179" y="271" type="line"/>
      <point x="54" y="122" type="line"/>
      <point x="109" y="80" type="line"/>
      <point x="223" y="221" type="line"/>
      <point x="339" y="79" type="line"/>
      <point x="426" y="143" type="line"/>
      <point x="291" y="301" type="line"/>
    </contour>
  </outline>
</glyph>
<glyph name="uni1CF7" format="2">
  <advance width="555"/>
  <unicode hex="1CF7"/>
  <note>
uni1CE1
</note>
  <outline>
    <contour>
      <point x="324" y="-182" type="line"/>
      <point x="336" y="-116"/>
      <point x="344" y="-60"/>
      <point x="344" y="28" type="curve" smooth="yes"/>
      <point x="344" y="234"/>
      <point x="263" y="392"/>
      <point x="263" y="607" type="curve" smooth="yes"/>
      <point x="263" y="711"/>
      <point x="309" y="742"/>
      <point x="364" y="742" type="curve" smooth="yes"/>
      <point x="418" y="742"/>
      <point x="447" y="718"/>
      <point x="478" y="678" type="curve"/>
      <point x="515" y="697" type="line"/>
      <point x="477" y="785"/>
      <point x="423" y="851"/>
      <point x="324" y="851" type="curve" smooth="yes"/>
      <point x="217" y="851"/>
      <point x="158" y="775"/>
      <point x="158" y="661" type="curve" smooth="yes"/>
      <point x="158" y="459"/>
      <point x="239" y="337"/>
      <point x="239" y="80" type="curve" smooth="yes"/>
      <point x="239" y="-23"/>
      <point x="226" y="-94"/>
      <point x="203" y="-167" type="curve"/>
    </contour>
  </outline>
</glyph>
<glyph name="uniA8F1" format="2">
  <unicode hex="A8F1"/>
  <note>
uniA8F1
</note>
  <outline>
    <contour>
      <point x="-99" y="979" type="curve" smooth="yes"/>
      <point x="-47" y="979"/>
      <point x="-20" y="1007"/>
      <point x="-20" y="1048" type="curve" smooth="yes"/>
      <point x="-20" y="1133"/>
      <point x="-128" y="1163"/>
      <point x="-128" y="1202" type="curve" smooth="yes"/>
      <point x="-128" y="1215"/>
      <point x="-120" y="1223"/>
      <point x="-101" y="1223" type="curve" smooth="yes"/>
      <point x="-32" y="1223" type="line"/>
      <point x="-32" y="1230" type="line"/>
      <point x="-53" y="1273" type="line"/>
      <point x="-134" y="1273" type="line" smooth="yes"/>
      <point x="-176" y="1273"/>
      <point x="-205" y="1253"/>
      <point x="-205" y="1220" type="curve" smooth="yes"/>
      <point x="-205" y="1154"/>
      <point x="-93" y="1118"/>
      <point x="-93" y="1067" type="curve" smooth="yes"/>
      <point x="-93" y="1048"/>
      <point x="-103" y="1036"/>
      <point x="-127" y="1036" type="curve" smooth="yes"/>
      <point x="-156" y="1036"/>
      <point x="-185" y="1067"/>
      <point x="-216" y="1117" type="curve"/>
      <point x="-252" y="1099" type="line"/>
      <point x="-214" y="1027"/>
      <point x="-169" y="979"/>
    </contour>
  </outline>
</glyph>
<glyph name="assacross" format="2">
  <advance width="546"/>
  <anchor x="220" y="39" name="_nukta"/>
  <outline>
    <contour>
      <point x="388" y="178" type="curve"/>
      <point x="407" y="212" type="line"/>
      <point x="366" y="283"/>
      <point x="311" y="327"/>
      <point x="258" y="367" type="curve"/>
      <point x="205" y="325" type="line"/>
      <point x="259" y="299"/>
      <point x="321" y="256"/>
    </contour>
  </outline>
</glyph>
<glyph name="b-beng" format="2">
  <advance width="453"/>
  <outline>
    <contour>
      <point x="379" y="124" type="line"/>
      <point x="387" y="125" type="line"/>
      <point x="387" y="550" type="line"/>
      <point x="488" y="550" type="line"/>
      <point x="445" y="622" type="line"/>
      <point x="-35" y="622" type="line"/>
      <point x="8" y="550" type="line"/>
      <point x="306" y="550" type="line"/>
      <point x="306" y="488" type="line"/>
      <point x="315" y="535" type="line"/>
      <point x="205" y="511"/>
      <point x="99" y="465"/>
      <point x="11" y="412" type="curve"/>
      <point x="59" y="288" type="line"/>
      <point x="163" y="271"/>
      <point x="263" y="235"/>
      <point x="317" y="158" type="curve"/>
    </contour>
    <contour>
      <point x="306" y="206" type="line"/>
      <point x="318" y="219" type="line"/>
      <point x="259" y="332"/>
      <point x="163" y="354"/>
      <point x="87" y="372" type="curve"/>
      <point x="104" y="318" type="line"/>
      <point x="155" y="354"/>
      <point x="249" y="398"/>
      <point x="320" y="415" type="curve"/>
      <point x="306" y="448" type="line"/>
    </contour>
  </outline>
</glyph>
<glyph name="c-beng" format="2">
  <advance width="444"/>
  <outline>
    <contour>
      <point x="197" y="120" type="curve" smooth="yes"/>
      <point x="335" y="120"/>
      <point x="411" y="271"/>
      <point x="411" y="358" type="curve" smooth="yes"/>
      <point x="411" y="412"/>
      <point x="364" y="446"/>
      <point x="340" y="457" type="curve"/>
      <point x="270" y="459"/>
      <point x="187" y="484"/>
      <point x="140" y="558" type="curve"/>
      <point x="139" y="491" type="line"/>
      <point x="169" y="417"/>
      <point x="240" y="357"/>
      <point x="339" y="353" type="curve"/>
      <point x="294" y="396" type="line"/>
      <point x="287" y="284"/>
      <point x="225" y="212"/>
      <point x="181" y="212" type="curve" smooth="yes"/>
      <point x="159" y="212"/>
      <point x="145" y="223"/>
      <point x="145" y="244" type="curve" smooth="yes"/>
      <point x="145" y="564" type="line"/>
      <point x="61" y="564" type="line"/>
      <point x="61" y="244" type="line" smooth="yes"/>
      <point x="61" y="175"/>
      <point x="129" y="120"/>
    </contour>
    <contour>
      <point x="7" y="550" type="line"/>
      <point x="479" y="550" type="line"/>
      <point x="439" y="622" type="line"/>
      <point x="-35" y="622" type="line"/>
    </contour>
  </outline>
</glyph>
<glyph name="dd-beng" format="2">
  <advance width="506"/>
  <outline>
    <contour>
      <point x="301" y="126" type="curve" smooth="yes"/>
      <point x="432" y="126"/>
      <point x="493" y="210"/>
      <point x="493" y="325" type="curve" smooth="yes"/>
      <point x="493" y="410"/>
      <point x="457" y="473"/>
      <point x="410" y="514" type="curve"/>
      <point x="366" y="453"/>
      <point x="322" y="427"/>
      <point x="292" y="427" type="curve" smooth="yes"/>
      <point x="278" y="427"/>
      <point x="265" y="432"/>
      <point x="265" y="451" type="curve" smooth="yes"/>
      <point x="265" y="550" type="line"/>
      <point x="541" y="550" type="line"/>
      <point x="498" y="622" type="line"/>
      <point x="-35" y="622" type="line"/>
      <point x="8" y="550" type="line"/>
      <point x="184" y="550" type="line"/>
      <point x="184" y="427" type="line" smooth="yes"/>
      <point x="184" y="387"/>
      <point x="199" y="361"/>
      <point x="221" y="340" type="curve" smooth="yes"/>
      <point x="243" y="320"/>
      <point x="271" y="308"/>
      <point x="305" y="308" type="curve" smooth="yes"/>
      <point x="353" y="308"/>
      <point x="413" y="348"/>
      <point x="452" y="406" type="curve"/>
      <point x="404" y="424" type="line"/>
      <point x="422" y="403"/>
      <point x="435" y="381"/>
      <point x="435" y="349" type="curve" smooth="yes"/>
      <point x="435" y="285"/>
      <point x="380" y="246"/>
      <point x="307" y="246" type="curve" smooth="yes"/>
      <point x="175" y="246"/>
      <point x="110" y="346"/>
      <point x="62" y="510" type="curve"/>
      <point x="9" y="498" type="line"/>
      <point x="58" y="263"/>
      <point x="141" y="126"/>
    </contour>
  </outline>
</glyph>
<glyph name="ddNukta_ba-beng" format="2">
  <advance width="516"/>
  <anchor x="426" y="-206" name="bottom"/>
  <anchor x="433" y="-148" name="bottom.rakaar"/>
  <anchor x="433" y="-224" name="bottom.rvocalic"/>
  <anchor x="413" y="-222" name="bottom.virama"/>
  <anchor x="257" y="583" name="top"/>
  <anchor x="259" y="571" name="topright"/>
  <outline>
    <contour>
      <point x="301" y="126" type="curve" smooth="yes"/>
      <point x="432" y="126"/>
      <point x="493" y="210"/>
      <point x="493" y="325" type="curve" smooth="yes"/>
      <point x="493" y="410"/>
      <point x="457" y="473"/>
      <point x="410" y="514" type="curve"/>
      <point x="366" y="453"/>
      <point x="322" y="427"/>
      <point x="292" y="427" type="curve" smooth="yes"/>
      <point x="278" y="427"/>
      <point x="265" y="432"/>
      <point x="265" y="451" type="curve" smooth="yes"/>
      <point x="265" y="550" type="line"/>
      <point x="551" y="550" type="line"/>
      <point x="508" y="622" type="line"/>
      <point x="-35" y="622" type="line"/>
      <point x="8" y="550" type="line"/>
      <point x="184" y="550" type="line"/>
      <point x="184" y="427" type="line" smooth="yes"/>
      <point x="184" y="387"/>
      <point x="199" y="361"/>
      <point x="221" y="340" type="curve" smooth="yes"/>
      <point x="243" y="320"/>
      <point x="271" y="308"/>
      <point x="305" y="308" type="curve" smooth="yes"/>
      <point x="353" y="308"/>
      <point x="413" y="348"/>
      <point x="452" y="406" type="curve"/>
      <point x="404" y="424" type="line"/>
      <point x="422" y="403"/>
      <point x="435" y="381"/>
      <point x="435" y="349" type="curve" smooth="yes"/>
      <point x="435" y="285"/>
      <point x="380" y="246"/>
      <point x="307" y="246" type="curve" smooth="yes"/>
      <point x="175" y="246"/>
      <point x="110" y="346"/>
      <point x="62" y="510" type="curve"/>
      <point x="9" y="498" type="line"/>
      <point x="58" y="263"/>
      <point x="141" y="126"/>
    </contour>
    <contour>
      <point x="107" y="32" type="curve" smooth="yes"/>
      <point x="144" y="32"/>
      <point x="175" y="58"/>
      <point x="175" y="99" type="curve" smooth="yes"/>
      <point x="175" y="140"/>
      <point x="145" y="167"/>
      <point x="107" y="167" type="curve" smooth="yes"/>
      <point x="69" y="167"/>
      <point x="38" y="140"/>
      <point x="38" y="99" type="curve" smooth="yes"/>
      <point x="38" y="59"/>
      <point x="70" y="32"/>
    </contour>
    <contour>
      <point x="424" y="-259" type="line"/>
      <point x="433" y="-256" type="line"/>
      <point x="433" y="229" type="line"/>
      <point x="352" y="216" type="line"/>
      <point x="352" y="-170" type="line"/>
      <point x="366" y="-157" type="line"/>
      <point x="321" y="-93"/>
      <point x="252" y="-59"/>
      <point x="175" y="-48" type="curve"/>
      <point x="190" y="-87" type="line"/>
      <point x="236" y="-53"/>
      <point x="307" y="-28"/>
      <point x="370" y="-9" type="curve"/>
      <point x="364" y="100" type="line"/>
      <point x="268" y="72"/>
      <point x="186" y="40"/>
      <point x="105" y="-15" type="curve"/>
      <point x="158" y="-131" type="line"/>
      <point x="252" y="-136"/>
      <point x="317" y="-162"/>
      <point x="357" y="-217" type="curve"/>
    </contour>
  </outline>
</glyph>
<glyph name="ddh-beng" format="2">
  <advance width="444"/>
  <outline>
    <contour>
      <point x="197" y="126" type="curve" smooth="yes"/>
      <point x="324" y="126"/>
      <point x="419" y="252"/>
      <point x="419" y="367" type="curve" smooth="yes"/>
      <point x="419" y="448"/>
      <point x="371" y="484"/>
      <point x="317" y="484" type="curve" smooth="yes"/>
      <point x="260" y="484"/>
      <point x="224" y="446"/>
      <point x="224" y="400" type="curve" smooth="yes"/>
      <point x="224" y="354"/>
      <point x="253" y="321"/>
      <point x="303" y="321" type="curve" smooth="yes"/>
      <point x="322" y="321"/>
      <point x="341" y="331"/>
      <point x="356" y="349" type="curve"/>
      <point x="303" y="378" type="line"/>
      <point x="299" y="274"/>
      <point x="228" y="216"/>
      <point x="179" y="216" type="curve" smooth="yes"/>
      <point x="160" y="216"/>
      <point x="145" y="226"/>
      <point x="145" y="247" type="curve" smooth="yes"/>
      <point x="145" y="550" type="line"/>
      <point x="479" y="550" type="line"/>
      <point x="440" y="622" type="line"/>
      <point x="-35" y="622" type="line"/>
      <point x="7" y="550" type="line"/>
      <point x="61" y="550" type="line"/>
      <point x="61" y="249" type="line" smooth="yes"/>
      <point x="61" y="180"/>
      <point x="130" y="126"/>
    </contour>
  </outline>
</glyph>
<glyph name="ddhNukta_ba-beng" format="2">
  <advance width="459"/>
  <anchor x="381" y="-215" name="bottom"/>
  <anchor x="387" y="-157" name="bottom.rakaar"/>
  <anchor x="387" y="-233" name="bottom.rvocalic"/>
  <anchor x="367" y="-230" name="bottom.virama"/>
  <anchor x="145" y="583" name="top"/>
  <anchor x="147" y="571" name="topright"/>
  <outline>
    <contour>
      <point x="205" y="153" type="curve" smooth="yes"/>
      <point x="332" y="153"/>
      <point x="438" y="258"/>
      <point x="438" y="373" type="curve" smooth="yes"/>
      <point x="438" y="453"/>
      <point x="390" y="489"/>
      <point x="336" y="489" type="curve" smooth="yes"/>
      <point x="279" y="489"/>
      <point x="243" y="452"/>
      <point x="243" y="406" type="curve" smooth="yes"/>
      <point x="243" y="360"/>
      <point x="272" y="326"/>
      <point x="321" y="326" type="curve" smooth="yes"/>
      <point x="341" y="326"/>
      <point x="359" y="336"/>
      <point x="374" y="355" type="curve"/>
      <point x="322" y="384" type="line"/>
      <point x="318" y="280"/>
      <point x="235" y="242"/>
      <point x="192" y="242" type="curve" smooth="yes"/>
      <point x="167" y="242"/>
      <point x="154" y="254"/>
      <point x="154" y="278" type="curve" smooth="yes"/>
      <point x="154" y="550" type="line"/>
      <point x="494" y="550" type="line"/>
      <point x="454" y="622" type="line"/>
      <point x="-35" y="622" type="line"/>
      <point x="7" y="550" type="line"/>
      <point x="70" y="550" type="line"/>
      <point x="70" y="276" type="line" smooth="yes"/>
      <point x="70" y="207"/>
      <point x="139" y="153"/>
    </contour>
    <contour>
      <point x="114" y="36" type="curve" smooth="yes"/>
      <point x="147" y="36"/>
      <point x="176" y="60"/>
      <point x="176" y="97" type="curve" smooth="yes"/>
      <point x="176" y="134"/>
      <point x="148" y="159"/>
      <point x="114" y="159" type="curve" smooth="yes"/>
      <point x="79" y="159"/>
      <point x="51" y="134"/>
      <point x="51" y="97" type="curve" smooth="yes"/>
      <point x="51" y="61"/>
      <point x="80" y="36"/>
    </contour>
    <contour>
      <point x="379" y="-267" type="line"/>
      <point x="387" y="-265" type="line"/>
      <point x="387" y="285" type="line"/>
      <point x="306" y="250" type="line"/>
      <point x="306" y="-178" type="line"/>
      <point x="321" y="-168" type="line"/>
      <point x="282" y="-103"/>
      <point x="207" y="-68"/>
      <point x="130" y="-56" type="curve"/>
      <point x="145" y="-95" type="line"/>
      <point x="190" y="-62"/>
      <point x="261" y="-36"/>
      <point x="324" y="-18" type="curve"/>
      <point x="319" y="92" type="line"/>
      <point x="222" y="64"/>
      <point x="140" y="31"/>
      <point x="59" y="-24" type="curve"/>
      <point x="113" y="-139" type="line"/>
      <point x="206" y="-145"/>
      <point x="272" y="-168"/>
      <point x="311" y="-225" type="curve"/>
    </contour>
  </outline>
</glyph>
<glyph name="eMatra-beng.init" format="2">
  <advance width="411"/>
  <outline>
    <contour>
      <point x="285" y="-26" type="curve" smooth="yes"/>
      <point x="356" y="-26"/>
      <point x="398" y="13"/>
      <point x="398" y="79" type="curve" smooth="yes"/>
      <point x="398" y="130"/>
      <point x="366" y="174"/>
      <point x="304" y="174" type="curve" smooth="yes"/>
      <point x="252" y="174"/>
      <point x="215" y="138"/>
      <point x="215" y="90" type="curve" smooth="yes"/>
      <point x="215" y="55"/>
      <point x="227" y="31"/>
      <point x="245" y="14" type="curve"/>
      <point x="274" y="28" type="line"/>
      <point x="184" y="54"/>
      <point x="153" y="139"/>
      <point x="153" y="260" type="curve" smooth="yes"/>
      <point x="153" y="424"/>
      <point x="277" y="550"/>
      <point x="401" y="550" type="curve" smooth="yes"/>
      <point x="446" y="550" type="line"/>
      <point x="405" y="622" type="line"/>
      <point x="319" y="622" type="line" smooth="yes"/>
      <point x="175" y="622"/>
      <point x="44" y="480"/>
      <point x="44" y="299" type="curve" smooth="yes"/>
      <point x="44" y="80"/>
      <point x="160" y="-26"/>
    </contour>
  </outline>
</glyph>
<glyph name="g-beng" format="2">
  <advance width="398"/>
  <outline>
    <contour>
      <point x="201" y="130" type="line"/>
      <point x="328" y="189"/>
      <point x="373" y="264"/>
      <point x="373" y="344" type="curve" smooth="yes"/>
      <point x="373" y="419"/>
      <point x="326" y="477"/>
      <point x="242" y="477" type="curve" smooth="yes"/>
      <point x="192" y="477"/>
      <point x="156" y="461"/>
      <point x="130" y="445" type="curve"/>
      <point x="149" y="421" type="line"/>
      <point x="179" y="484"/>
      <point x="232" y="530"/>
      <point x="286" y="530" type="curve" smooth="yes"/>
      <point x="349" y="530"/>
      <point x="412" y="486"/>
      <point x="483" y="335" type="curve"/>
      <point x="524" y="361" type="line"/>
      <point x="438" y="575"/>
      <point x="344" y="634"/>
      <point x="251" y="634" type="curve" smooth="yes"/>
      <point x="156" y="634"/>
      <point x="68" y="573"/>
      <point x="1" y="447" type="curve"/>
      <point x="95" y="354" type="line"/>
      <point x="134" y="384"/>
      <point x="177" y="408"/>
      <point x="218" y="408" type="curve" smooth="yes"/>
      <point x="252" y="408"/>
      <point x="271" y="391"/>
      <point x="271" y="360" type="curve" smooth="yes"/>
      <point x="271" y="318"/>
      <point x="220" y="283"/>
      <point x="125" y="255" type="curve"/>
    </contour>
  </outline>
</glyph>
<glyph name="iiMatra_reph_candrabindu-beng" format="2">
  <advance width="249"/>
  <anchor x="149" y="678" name="top"/>
  <anchor x="-2" y="573" name="topright"/>
  <anchor x="-224" y="0" name="vedic"/>
  <outline>
    <contour>
      <point x="7" y="840" type="curve" smooth="yes"/>
      <point x="86" y="840"/>
      <point x="138" y="895"/>
      <point x="150" y="996" type="curve"/>
      <point x="109" y="1010" type="line"/>
      <point x="98" y="965"/>
      <point x="68" y="921"/>
      <point x="5" y="921" type="curve" smooth="yes"/>
      <point x="-59" y="921"/>
      <point x="-90" y="965"/>
      <point x="-101" y="1010" type="curve"/>
      <point x="-141" y="996" type="line"/>
      <point x="-130" y="895"/>
      <point x="-74" y="840"/>
    </contour>
    <contour>
      <point x="4" y="953" type="curve" smooth="yes"/>
      <point x="32" y="953"/>
      <point x="55" y="972"/>
      <point x="55" y="1005" type="curve" smooth="yes"/>
      <point x="55" y="1035"/>
      <point x="32" y="1056"/>
      <point x="4" y="1056" type="curve" smooth="yes"/>
      <point x="-26" y="1056"/>
      <point x="-50" y="1035"/>
      <point x="-50" y="1005" type="curve" smooth="yes"/>
      <point x="-50" y="972"/>
      <point x="-24" y="953"/>
    </contour>
    <component base="iiMatra-beng"/>
    <component base="reph-beng" xOffset="121" yOffset="-57"/>
  </outline>
</glyph>
<glyph name="sh-beng" format="2">
  <advance width="413"/>
  <outline>
    <contour>
      <point x="114" y="241" type="curve" smooth="yes"/>
      <point x="169" y="241"/>
      <point x="208" y="278"/>
      <point x="222" y="330" type="curve"/>
      <point x="237" y="271"/>
      <point x="277" y="242"/>
      <point x="325" y="242" type="curve" smooth="yes"/>
      <point x="377" y="242"/>
      <point x="413" y="274"/>
      <point x="413" y="335" type="curve" smooth="yes"/>
      <point x="413" y="400"/>
      <point x="360" y="455"/>
      <point x="286" y="490" type="curve"/>
      <point x="295" y="459" type="line"/>
      <point x="313" y="492"/>
      <point x="336" y="517"/>
      <point x="368" y="517" type="curve" smooth="yes"/>
      <point x="414" y="517"/>
      <point x="454" y="469"/>
      <point x="497" y="378" type="curve"/>
      <point x="539" y="395" type="line"/>
      <point x="476" y="563"/>
      <point x="411" y="631"/>
      <point x="338" y="631" type="curve" smooth="yes"/>
      <point x="284" y="631"/>
      <point x="238" y="595"/>
      <point x="200" y="545" type="curve"/>
      <point x="158" y="593"/>
      <point x="125" y="622"/>
      <point x="64" y="622" type="curve" smooth="yes"/>
      <point x="-35" y="622" type="line"/>
      <point x="8" y="550" type="line"/>
      <point x="64" y="550" type="line" smooth="yes"/>
      <point x="109" y="550"/>
      <point x="144" y="530"/>
      <point x="172" y="488" type="curve"/>
      <point x="189" y="515" type="line"/>
      <point x="58" y="464"/>
      <point x="24" y="389"/>
      <point x="24" y="333" type="curve" smooth="yes"/>
      <point x="24" y="265"/>
      <point x="73" y="241"/>
    </contour>
  </outline>
</glyph>
<glyph name="tta_iiMatra-beng" format="2">
  <advance width="798"/>
  <anchor x="363" y="9" name="bottom"/>
  <anchor x="430" y="2" name="bottom.rakaar"/>
  <anchor x="360" y="9" name="bottom.rvocalic"/>
  <anchor x="296" y="29" name="bottom.virama"/>
  <anchor x="698" y="678" name="top"/>
  <anchor x="588" y="550" name="topright"/>
  <anchor x="399" y="0" name="vedic"/>
  <anchor x="243" y="-100" name="nukta"/>
  <outline>
    <contour>
      <point x="710" y="-35" type="line"/>
      <point x="718" y="-33" type="line"/>
      <point x="718" y="550" type="line"/>
      <point x="833" y="550" type="line"/>
      <point x="790" y="622" type="line"/>
      <point x="714" y="622" type="line"/>
      <point x="694" y="816"/>
      <point x="566" y="939"/>
      <point x="338" y="939" type="curve" smooth="yes"/>
      <point x="168" y="939"/>
      <point x="94" y="869"/>
      <point x="94" y="795" type="curve" smooth="yes"/>
      <point x="94" y="775"/>
      <point x="99" y="760"/>
      <point x="106" y="746" type="curve"/>
      <point x="121" y="767" type="line"/>
      <point x="42" y="767"/>
      <point x="21" y="802"/>
      <point x="21" y="859" type="curve" smooth="yes"/>
      <point x="21" y="871"/>
      <point x="22" y="885"/>
      <point x="24" y="896" type="curve"/>
      <point x="-27" y="902" type="line"/>
      <point x="-32" y="879"/>
      <point x="-35" y="854"/>
      <point x="-35" y="830" type="curve" smooth="yes"/>
      <point x="-35" y="733"/>
      <point x="18" y="665"/>
      <point x="120" y="665" type="curve" smooth="yes"/>
      <point x="193" y="665"/>
      <point x="263" y="683"/>
      <point x="319" y="683" type="curve" smooth="yes"/>
      <point x="376" y="683"/>
      <point x="414" y="670"/>
      <point x="423" y="610" type="curve"/>
      <point x="483" y="610" type="line"/>
      <point x="475" y="707"/>
      <point x="426" y="785"/>
      <point x="324" y="785" type="curve" smooth="yes"/>
      <point x="272" y="785"/>
      <point x="239" y="775"/>
      <point x="199" y="775" type="curve" smooth="yes"/>
      <point x="169" y="775"/>
      <point x="159" y="781"/>
      <point x="159" y="796" type="curve" smooth="yes"/>
      <point x="159" y="825"/>
      <point x="228" y="843"/>
      <point x="331" y="843" type="curve" smooth="yes"/>
      <point x="509" y="843"/>
      <point x="629" y="789"/>
      <point x="632" y="622" type="curve"/>
      <point x="509" y="622" type="line"/>
      <point x="551" y="550" type="line"/>
      <point x="629" y="550" type="line"/>
      <point x="629" y="1" type="line"/>
    </contour>
    <component base="ddha-beng" xOffset="2"/>
  </outline>
</glyph>
